<svg width="24" height="24" viewBox="0 0 24 24" fill="none" xmlns="http://www.w3.org/2000/svg">
<g id="chart-line 1">
<path id="Vector" d="M2.375 17.8125C2.375 18.9512 3.2984 19.875 4.4375 19.875H22.3125C22.6906 19.875 23 20.1844 23 20.5625C23 20.9406 22.6906 21.25 22.3125 21.25H4.4375C2.53914 21.25 1 19.7117 1 17.8125V2.6875C1 2.30766 1.30783 2 1.6875 2C2.06734 2 2.375 2.30766 2.375 2.6875V17.8125ZM15.2355 13.4855C14.9691 13.7562 14.5309 13.7562 14.2645 13.4855L10.5863 9.84609L6.29805 14.173C6.03164 14.4437 5.59336 14.4437 5.32695 14.173C5.05797 13.9066 5.05797 13.4684 5.32695 13.202L10.1395 8.38945C10.4059 8.11875 10.8441 8.11875 11.1105 8.38945L14.75 12.0289L20.452 6.32695C20.7184 6.05625 21.1566 6.05625 21.423 6.32695C21.6938 6.59336 21.6938 7.03164 21.423 7.29805L15.2355 13.4855Z" fill="white"/>
</g>
</svg>
