<svg width="24" height="24" viewBox="0 0 24 24" fill="none" xmlns="http://www.w3.org/2000/svg">
<g id="chart-simple">
<path id="Vector" d="M12.7857 1C14.0871 1 15.1429 2.05531 15.1429 3.35714V20.6429C15.1429 21.9442 14.0871 23 12.7857 23H11.2143C9.91295 23 8.85714 21.9442 8.85714 20.6429V3.35714C8.85714 2.05531 9.91295 1 11.2143 1H12.7857ZM12.7857 2.57143H11.2143C10.7821 2.57143 10.4286 2.92304 10.4286 3.35714V20.6429C10.4286 21.075 10.7821 21.4286 11.2143 21.4286H12.7857C13.2179 21.4286 13.5714 21.075 13.5714 20.6429V3.35714C13.5714 2.92304 13.2179 2.57143 12.7857 2.57143ZM4.92857 10.4286C6.22991 10.4286 7.28571 11.4844 7.28571 12.7857V20.6429C7.28571 21.9442 6.22991 23 4.92857 23H3.35714C2.05531 23 1 21.9442 1 20.6429V12.7857C1 11.4844 2.05531 10.4286 3.35714 10.4286H4.92857ZM4.92857 12H3.35714C2.92304 12 2.57143 12.3536 2.57143 12.7857V20.6429C2.57143 21.075 2.92304 21.4286 3.35714 21.4286H4.92857C5.36268 21.4286 5.71429 21.075 5.71429 20.6429V12.7857C5.71429 12.3536 5.36268 12 4.92857 12ZM16.7143 6.5C16.7143 5.19866 17.7701 4.14286 19.0714 4.14286H20.6429C21.9442 4.14286 23 5.19866 23 6.5V20.6429C23 21.9442 21.9442 23 20.6429 23H19.0714C17.7701 23 16.7143 21.9442 16.7143 20.6429V6.5ZM18.2857 6.5V20.6429C18.2857 21.075 18.6393 21.4286 19.0714 21.4286H20.6429C21.075 21.4286 21.4286 21.075 21.4286 20.6429V6.5C21.4286 6.06786 21.075 5.71429 20.6429 5.71429H19.0714C18.6393 5.71429 18.2857 6.06786 18.2857 6.5Z" fill="#00091E"/>
</g>
</svg>
