<svg width="24" height="24" viewBox="0 0 24 24" fill="none" xmlns="http://www.w3.org/2000/svg">
<g id="chart-simple-horizontal">
<path id="Vector" d="M23 12.7857C23 14.0871 21.9442 15.1429 20.6429 15.1429H3.35714C2.05531 15.1429 1 14.0871 1 12.7857V11.2143C1 9.91295 2.05531 8.85714 3.35714 8.85714H20.6429C21.9442 8.85714 23 9.91295 23 11.2143V12.7857ZM20.6429 10.4286H3.35714C2.92304 10.4286 2.57143 10.7821 2.57143 11.2143V12.7857C2.57143 13.2179 2.92304 13.5714 3.35714 13.5714H20.6429C21.075 13.5714 21.4286 13.2179 21.4286 12.7857V11.2143C21.4286 10.7821 21.075 10.4286 20.6429 10.4286ZM13.5714 20.6429C13.5714 21.9442 12.5156 23 11.2143 23H3.35714C2.05531 23 1 21.9442 1 20.6429V19.0714C1 17.7701 2.05531 16.7143 3.35714 16.7143H11.2143C12.5156 16.7143 13.5714 17.7701 13.5714 19.0714V20.6429ZM11.2143 18.2857H3.35714C2.92304 18.2857 2.57143 18.6393 2.57143 19.0714V20.6429C2.57143 21.075 2.92304 21.4286 3.35714 21.4286H11.2143C11.6464 21.4286 12 21.075 12 20.6429V19.0714C12 18.6393 11.6464 18.2857 11.2143 18.2857ZM3.35714 7.28571C2.05531 7.28571 1 6.22991 1 4.92857V3.35714C1 2.05531 2.05531 1 3.35714 1H17.5C18.8013 1 19.8571 2.05531 19.8571 3.35714V4.92857C19.8571 6.22991 18.8013 7.28571 17.5 7.28571H3.35714ZM18.2857 4.92857V3.35714C18.2857 2.92304 17.9321 2.57143 17.5 2.57143H3.35714C2.92304 2.57143 2.57143 2.92304 2.57143 3.35714V4.92857C2.57143 5.36071 2.92304 5.71429 3.35714 5.71429H17.5C17.9321 5.71429 18.2857 5.36071 18.2857 4.92857Z" fill="white"/>
</g>
</svg>
