<svg width="40" height="40" viewBox="0 0 40 40" fill="none" xmlns="http://www.w3.org/2000/svg">
<g id="question-circle">
<g id="Vector">
<path fill-rule="evenodd" clip-rule="evenodd" d="M20.0001 4.29672C11.3274 4.29672 4.29685 11.3273 4.29685 20C4.29685 28.6726 11.3274 35.7032 20.0001 35.7032C28.6727 35.7032 35.7033 28.6726 35.7033 20C35.7033 11.3273 28.6727 4.29672 20.0001 4.29672ZM1.66675 20C1.66675 9.87474 9.87486 1.66663 20.0001 1.66663C30.1253 1.66663 38.3334 9.87474 38.3334 20C38.3334 30.1252 30.1253 38.3333 20.0001 38.3333C9.87486 38.3333 1.66675 30.1252 1.66675 20ZM14.0437 15.3586C14.0437 12.069 16.7105 9.40221 20.0001 9.40221C23.2897 9.40221 25.9565 12.069 25.9565 15.3586V15.4981C25.9565 17.8071 24.6519 19.9179 22.5868 20.9505L19.768 22.3598V24.6413C19.768 25.3676 19.1793 25.9564 18.453 25.9564C17.7267 25.9564 17.1379 25.3676 17.1379 24.6413V20.7343L21.4105 18.598C22.5847 18.011 23.3264 16.8109 23.3264 15.4981V15.3586C23.3264 13.5215 21.8371 12.0323 20.0001 12.0323C18.163 12.0323 16.6738 13.5215 16.6738 15.3586C16.6738 16.0849 16.085 16.6737 15.3587 16.6737C14.6325 16.6737 14.0437 16.0849 14.0437 15.3586Z" fill="#D33F01"/>
<path d="M19.7679 28.277C19.7679 29.0033 19.1791 29.5921 18.4528 29.5921C17.7265 29.5921 17.1378 29.0033 17.1378 28.277C17.1378 27.5507 17.7265 26.962 18.4528 26.962C19.1791 26.962 19.7679 27.5507 19.7679 28.277Z" fill="#D33F01"/>
</g>
</g>
</svg>
