<svg width="40" height="40" viewBox="0 0 40 40" fill="none" xmlns="http://www.w3.org/2000/svg">
<g id="word cloud">
<g id="Vector">
<path d="M28.8163 11.0067C32.6061 11.0067 35.6735 14.0837 35.6735 17.8854C35.6735 18.5425 35.5816 19.1198 35.4102 19.777C37.8959 21.0913 39.5918 23.7137 39.5918 26.7293C39.5918 31.0714 36.0837 34.5906 31.7551 34.5906H9.22449C4.35531 34.5906 0.408163 30.6292 0.408163 25.7466C0.408163 21.8897 2.86633 18.6162 6.29612 17.4002C6.54898 11.6578 11.2694 7.07611 17.0612 7.07611C20.7041 7.07611 23.9245 8.89095 25.8776 11.67C26.7653 11.2444 27.7633 11.0067 28.8163 11.0067ZM26.7163 13.445C25.8592 13.8565 24.8245 13.5801 24.2735 12.8001C22.6755 10.5228 20.0429 9.04142 17.0612 9.04142C12.3225 9.04142 8.45918 12.7878 8.25102 17.4861C8.22041 18.2907 7.7 18.9356 6.94694 19.2549C4.27633 20.2007 2.36735 22.7495 2.36735 25.7466C2.36735 29.5483 5.43714 32.6252 9.22449 32.6252H31.7551C35 32.6252 37.6327 29.9843 37.6327 26.7293C37.6327 24.4692 36.3653 22.5039 34.498 21.5151C33.6776 21.0237 33.2735 20.127 33.5245 19.1812C33.6469 18.8066 33.7143 18.3583 33.7143 17.8854C33.7143 15.1708 31.5225 12.9721 28.8163 12.9721C28.0633 12.9721 27.3531 13.144 26.7163 13.445Z" fill="#FFFFFF"/>
<path fill-rule="evenodd" clip-rule="evenodd" d="M5.90365 17.1094C6.30098 11.2775 11.1419 6.66666 17.0612 6.66666C20.7217 6.66666 23.9707 8.43246 26.0127 11.1605C26.8742 10.7973 27.8227 10.5973 28.8163 10.5973C32.8316 10.5973 36.0816 13.8576 36.0816 17.8854C36.0816 18.4778 36.011 19.0079 35.8814 19.5704C38.3421 20.9977 40 23.6711 40 26.7293C40 31.2975 36.3091 35 31.7551 35H9.22449C4.12983 35 0 30.8553 0 25.7466C0 21.8071 2.45081 18.4507 5.90365 17.1094ZM8.65884 17.5031C8.62062 18.4934 7.9772 19.2625 7.10588 19.6321L7.09448 19.6369L7.08282 19.641C4.57013 20.5309 2.77551 22.9286 2.77551 25.7466C2.77551 29.3221 5.66247 32.2158 9.22449 32.2158H31.7551C34.7746 32.2158 37.2245 29.7582 37.2245 26.7293C37.2245 24.6266 36.0459 22.7977 34.3074 21.8771L34.2884 21.8671C33.3222 21.2884 32.829 20.2102 33.1301 19.0759L33.133 19.0647L33.1366 19.0537C33.2437 18.7261 33.3061 18.3216 33.3061 17.8854C33.3061 15.3969 31.297 13.3815 28.8163 13.3815C28.1265 13.3815 27.4759 13.5388 26.8914 13.8148C25.8525 14.3129 24.6044 13.9767 23.9405 13.0368C22.4157 10.8639 19.9045 9.45086 17.0612 9.45086C12.5422 9.45086 8.85798 13.0232 8.65884 17.5031ZM12 17.7216C12 16.9075 12.6579 16.2476 13.4694 16.2476H24.898C25.7095 16.2476 26.3673 16.9075 26.3673 17.7216C26.3673 18.5356 25.7095 19.1956 24.898 19.1956H20.6531V29.1859C20.6531 30 19.9952 30.6599 19.1837 30.6599C18.3722 30.6599 17.7143 30 17.7143 29.1859V19.1956H13.4694C12.6579 19.1956 12 18.5356 12 17.7216Z" fill="#FFFFFF"/>
</g>
</g>
</svg>
