<svg width="40" height="40" viewBox="0 0 40 40" fill="none" xmlns="http://www.w3.org/2000/svg">
    <g id="chart-simple">
        <path id="Vector"
            d="M21.3096 1.66666C23.4785 1.66666 25.2382 3.42552 25.2382 5.59524V34.4048C25.2382 36.5737 23.4785 38.3333 21.3096 38.3333H18.6906C16.5217 38.3333 14.762 36.5737 14.762 34.4048V5.59524C14.762 3.42552 16.5217 1.66666 18.6906 1.66666H21.3096ZM21.3096 4.28571H18.6906C17.9703 4.28571 17.381 4.87172 17.381 5.59524V34.4048C17.381 35.125 17.9703 35.7143 18.6906 35.7143H21.3096C22.0298 35.7143 22.6191 35.125 22.6191 34.4048V5.59524C22.6191 4.87172 22.0298 4.28571 21.3096 4.28571ZM8.21437 17.3809C10.3833 17.3809 12.1429 19.1406 12.1429 21.3095V34.4048C12.1429 36.5737 10.3833 38.3333 8.21437 38.3333H5.59532C3.4256 38.3333 1.66675 36.5737 1.66675 34.4048V21.3095C1.66675 19.1406 3.4256 17.3809 5.59532 17.3809H8.21437ZM8.21437 20H5.59532C4.87181 20 4.2858 20.5893 4.2858 21.3095V34.4048C4.2858 35.125 4.87181 35.7143 5.59532 35.7143H8.21437C8.93788 35.7143 9.52389 35.125 9.52389 34.4048V21.3095C9.52389 20.5893 8.93788 20 8.21437 20ZM27.8572 10.8333C27.8572 8.66443 29.6169 6.90476 31.7858 6.90476H34.4048C36.5737 6.90476 38.3334 8.66443 38.3334 10.8333V34.4048C38.3334 36.5737 36.5737 38.3333 34.4048 38.3333H31.7858C29.6169 38.3333 27.8572 36.5737 27.8572 34.4048V10.8333ZM30.4763 10.8333V34.4048C30.4763 35.125 31.0656 35.7143 31.7858 35.7143H34.4048C35.1251 35.7143 35.7144 35.125 35.7144 34.4048V10.8333C35.7144 10.1131 35.1251 9.52381 34.4048 9.52381H31.7858C31.0656 9.52381 30.4763 10.1131 30.4763 10.8333Z"
            fill="#FFFFFF" />
    </g>
</svg>