<!DOCTYPE svg PUBLIC "-//W3C//DTD SVG 1.1//EN" "http://www.w3.org/Graphics/SVG/1.1/DTD/svg11.dtd">
<!-- Uploaded to: SVG Repo, www.svgrepo.com, Transformed by: SVG Repo Mixer Tools -->
<svg fill="#ffffff" height="256px" width="256px" version="1.1" id="Layer_1" xmlns="http://www.w3.org/2000/svg" xmlns:xlink="http://www.w3.org/1999/xlink" viewBox="0 0 512.001 512.001" xml:space="preserve" stroke="#ffffff">
<g id="SVGRepo_bgCarrier" stroke-width="0"/>
<g id="SVGRepo_tracerCarrier" stroke-linecap="round" stroke-linejoin="round"/>
<g id="SVGRepo_iconCarrier"> <g> <g> <path d="M303,129.734C356.172,86.293,325.299,0,256.569,0c-68.742,0-99.598,86.298-46.431,129.734 c-16.433,13.425-26.94,33.805-26.94,56.589v56.083c0,9.423,7.64,17.063,17.063,17.063h112.616c9.423,0,17.063-7.64,17.063-17.063 v-56.083C329.94,163.54,319.433,143.16,303,129.734z M256.001,34.236c21.515,0,39.02,17.504,39.02,39.02 c0,21.515-17.504,39.02-39.02,39.02s-39.02-17.504-39.02-39.02C216.981,51.741,234.485,34.236,256.001,34.236z M295.814,225.342 h-78.49V187c0-18.595,14.963-36.598,33.365-39.27c24.237-3.52,45.125,15.156,45.125,38.592V225.342z"/> </g> </g> <g> <g> <path d="M147.158,382.267c53.172-43.439,22.299-129.734-46.431-129.734c-68.742,0-99.597,86.3-46.431,129.734 c-16.433,13.425-26.94,33.805-26.94,56.589v56.083c0,9.423,7.64,17.063,17.063,17.063h112.616c9.423,0,17.063-7.64,17.063-17.063 v-56.083C174.098,416.072,163.591,395.692,147.158,382.267z M100.95,286.658c21.515,0,39.02,17.504,39.02,39.02 s-17.504,39.02-39.02,39.02c-21.515,0-39.02-17.504-39.02-39.02C61.932,304.163,79.435,286.658,100.95,286.658z M139.972,477.874 h-78.49v-38.342c0-18.595,14.963-36.598,33.365-39.27c24.237-3.52,45.125,15.156,45.125,38.592V477.874z"/> </g> </g> <g> <g> <path d="M457.704,382.267c53.172-43.439,22.299-129.734-46.431-129.734c-68.742,0-99.597,86.3-46.431,129.734 c-16.433,13.425-26.94,33.805-26.94,56.589v56.083c0,9.423,7.64,17.063,17.063,17.063h112.616c9.423,0,17.063-7.64,17.063-17.063 v-56.083C484.645,416.071,474.137,395.692,457.704,382.267z M411.05,286.658c21.515,0,39.02,17.504,39.02,39.02 s-17.504,39.02-39.02,39.02c-21.515,0-39.02-17.504-39.02-39.02S389.534,286.658,411.05,286.658z M450.519,477.874h-78.49v-38.342 c0-18.595,14.963-36.598,33.365-39.27c24.237-3.52,45.125,15.156,45.125,38.592V477.874z"/> </g> </g> <g> <g> <path d="M318.605,395.963l-45.541-45.541v-64.405c0-9.423-7.64-17.063-17.063-17.063c-9.423,0-17.063,7.64-17.063,17.063v64.405 l-45.541,45.541c-6.664,6.664-6.664,17.467,0,24.13c6.662,6.664,17.467,6.664,24.13,0l38.474-38.474l38.474,38.474 c6.663,6.663,17.467,6.664,24.13,0C325.268,413.429,325.268,402.626,318.605,395.963z"/> </g> </g> </g>
</svg>