<svg width="24" height="24" viewBox="0 0 24 24" xmlns="http://www.w3.org/2000/svg">
    <g id="chart-pie">
        <path id="Vector" fill-rule="evenodd" d="M12.6916 11.3125C12.3343 11.3125 12.0421 11.0031 12.0421 10.625V1.66473C12.0421 1.30396 12.3059 1.00186 12.6469 1.00011L12.6916 1C17.7133 1 21.785 5.30977 21.785 10.625L21.7485 10.6723C21.7485 11.0332 21.4968 11.3125 21.1558 11.3125H12.6916ZM13.3411 2.40336V9.9375H20.4576C20.145 5.92852 17.1287 2.73379 13.3411 2.40336ZM10.0935 3.13168V13.375L16.4467 20.0996C16.7187 20.3875 16.6984 20.8602 16.3858 21.0965C14.7945 22.2953 12.8459 23 10.743 23C5.36405 23 1 18.3852 1 12.6875C1 7.47539 4.65768 3.16305 9.36679 2.47168C9.77681 2.41754 10.0935 2.73422 10.0935 3.13168ZM9.17599 14.3461C8.93242 14.0883 8.79439 13.7402 8.79439 13.375V3.98891C5.07176 4.91961 2.29907 8.46367 2.29907 12.6875C2.29907 17.6246 6.07853 21.625 10.743 21.625C12.2694 21.625 13.7024 21.1953 14.9365 20.4477L9.17599 14.3461ZM19.9948 20.2199C19.7512 20.4262 19.3696 20.4434 19.1341 20.1941L13.7999 14.548C13.3898 14.1141 13.6821 13.375 14.2586 13.375H22.3696C22.7431 13.375 23.0435 13.7102 22.9948 14.1055C22.6822 16.5074 21.5861 18.643 19.9948 20.2199ZM21.5577 14.75H15.8296L19.5766 18.716C20.5306 17.6117 21.2248 16.2152 21.5577 14.75Z"/>
    </g>
</svg>
